# xmcd CD database file
#
# Track frame offsets:
#	150
#	12960
#	26182
#	38704
#	51375
#	64558
#	79216
#	92433
#	105316
#	117600
#	131941
#	145597
#	157650
#	169699
#	183117
#	197405
#
# Disc length: 2836 seconds
#
# Revision: 0
# Processed by: cddbd v1.5.1PL0 Copyright (c) Steve Scherf et al.
# Submitted via: CDex 1.51
#
DISCID=c80b1210
DTITLE=Duke Ellington - Ultimate Jazz and Blues
DYEAR=2004
DGENRE=Blues
TTITLE0=Black and tan fantasy
TTITLE1=Blue cellophane
TTITLE2=Caravan
TTITLE3=Carnigie Blues
TTITLE4=Chelsea Bridge
TTITLE5=I'm beginning to see the light
TTITLE6=Jump for joy
TTITLE7=Main stem
TTITLE8=Mood indigo
TTITLE9=Perdido
TTITLE10=Prelude to a kiss
TTITLE11=Sophisticated lady
TTITLE12=The "c" jamm blues
TTITLE13=The minor  goes a Muggin'
TTITLE14=Things ain't what they used to be
TTITLE15=What am I here for?
EXTD=YEAR: 2004
EXTT0=
EXTT1=
EXTT2=
EXTT3=
EXTT4=
EXTT5=
EXTT6=
EXTT7=
EXTT8=
EXTT9=
EXTT10=
EXTT11=
EXTT12=
EXTT13=
EXTT14=
EXTT15=
PLAYORDER=
